# File created by Blade
# Date/Time:  Wed Apr 08 17:31:39 2015
# Frame Rate: 120.000 fps
#------------------------------------------------------
:FULLY-SPECIFIED
:DEGREES
662
root -0.518062 22.074414 0.016581 -733.742924 -82.667492 560.747497
Spine 191.196004 -4.846670 -0.438595
Head 14.879902 10.420264 3.171075
LeftShoulder -6.161992 24.478643 25.192051
LeftArm 18.370231 10.787855 -84.478715
LeftForeArm 18.850527 -0.000000 38.013038
LeftHand -13.084819 0.000000 0.125214
LeftHandThumb1 -26.253704 0.000000 33.147579
RightShoulder -28.589640 -55.428934 -6.718587
RightArm 56.074482 -15.543742 37.760958
RightForeArm -3.370292 -0.000000 47.136504
RightHand 5.026167 -0.000000 1.284010
RightHandThumb1 -24.326973 -0.000000 -32.862282
LeftUpLeg 121.855356 -15.390043 -17.020774
LeftLeg 123.312667 -0.000000 -0.000000
LeftFoot -27.931512 -6.573513 -13.141320
LeftToeBase -32.953243 -0.000000 0.000000
RightUpLeg 122.400800 17.898737 14.689128
RightLeg 118.582324 -0.000000 -0.000000
RightFoot -33.317267 19.965088 7.328748
RightToeBase -23.537852 -0.000000 0.000000
663
root -0.516738 22.081086 0.025487 -733.787797 -82.282061 560.803494
Spine 191.261352 -5.041057 -0.498389
Head 14.818358 10.313859 3.148333
LeftShoulder -6.160069 24.489117 25.189837
LeftArm 18.306695 10.735891 -84.453247
LeftForeArm 18.806819 -0.000000 38.103186
LeftHand -13.111187 -0.000000 0.272016
LeftHandThumb1 -26.253704 0.000000 33.147579
RightShoulder -28.475755 -55.337363 -6.849085
RightArm 56.092097 -15.382688 37.785557
RightForeArm -3.131237 0.000000 47.052335
RightHand 4.932654 -0.000000 1.354200
RightHandThumb1 -24.326973 -0.000000 -32.862282
LeftUpLeg 121.986992 -15.536785 -17.077260
LeftLeg 123.348670 -0.000000 -0.000000
LeftFoot -27.985640 -6.321218 -13.072056
LeftToeBase -32.949601 -0.000000 0.000000
RightUpLeg 122.323186 17.919309 14.541060
RightLeg 118.442063 -0.000000 -0.000000
RightFoot -33.396565 20.122127 7.150578
RightToeBase -23.214940 -0.000000 0.000000
664
root -0.513106 22.088673 0.036373 -734.018922 -81.873419 560.987759
Spine 191.376087 -5.242470 -0.576675
Head 14.780209 10.238828 3.160486
LeftShoulder -6.158643 24.547624 25.166255
LeftArm 18.256702 10.677270 -84.394596
LeftForeArm 18.759235 -0.000000 38.245209
LeftHand -13.203108 -0.000000 0.374615
LeftHandThumb1 -26.253704 0.000000 33.147579
RightShoulder -28.344219 -55.266545 -6.965372
RightArm 56.126037 -15.218089 37.793707
RightForeArm -2.928188 -0.000000 46.934187
RightHand 4.927126 -0.000000 1.381303
RightHandThumb1 -24.326973 -0.000000 -32.862282
LeftUpLeg 122.173007 -15.651913 -17.179795
LeftLeg 123.389234 -0.000000 -0.000000
LeftFoot -28.068061 -6.099368 -13.155881
LeftToeBase -32.840633 -0.000000 0.000000
RightUpLeg 122.299069 17.904985 14.382212
RightLeg 118.291978 -0.000000 -0.000000
RightFoot -33.496821 20.228094 6.938728
RightToeBase -22.782606 -0.000000 0.000000
665
root -0.507401 22.097238 0.047306 -734.356083 -81.463500 561.299724
Spine 191.490552 -5.463783 -0.684778
Head 14.727749 10.111062 3.135834
LeftShoulder -6.152820 24.551767 25.157982
LeftArm 18.210169 10.677425 -84.319558
LeftForeArm 18.701071 0.000000 38.335138
LeftHand -13.250085 -0.000000 0.555118
LeftHandThumb1 -26.253704 0.000000 33.147579
RightShoulder -28.257007 -55.184514 -7.052357
RightArm 56.160966 -15.049811 37.835051
RightForeArm -2.812753 -0.000000 46.806796
RightHand 5.005611 -0.000000 1.351638
RightHandThumb1 -24.326973 -0.000000 -32.862282
LeftUpLeg 122.332793 -15.754447 -17.307596
LeftLeg 123.431260 -0.000000 -0.000000
LeftFoot -28.138223 -5.902906 -13.273159
LeftToeBase -32.703149 -0.000000 0.000000
RightUpLeg 122.261839 17.914279 14.179440
RightLeg 118.130315 -0.000000 -0.000000
RightFoot -33.616198 20.319579 6.711380
RightToeBase -22.305698 -0.000000 0.000000
